Coordinates
version=1
nRows=12
nColumns=24
inDegrees=yes

Units are S.I. units (second, meters, Newtons, ...)
Angles are in degrees.

endheader
time	pelvis_tilt	pelvis_list	pelvis_rotation	pelvis_tx	pelvis_ty	pelvis_tz	hip_flexion_r	hip_adduction_r	hip_rotation_r	knee_angle_r	ankle_angle_r	subtalar_angle_r	mtp_angle_r	hip_flexion_l	hip_adduction_l	hip_rotation_l	knee_angle_l	ankle_angle_l	subtalar_angle_l	mtp_angle_l	lumbar_extension	lumbar_bending	lumbar_rotation
      1.37000000	     23.87391216	     -9.76458234	      0.61341593	     -0.28468073	      0.91012744	     -0.04928959	     -5.17035732	      9.76223877	      6.91467595	    -20.35288165	      9.60905985	    -20.48499275	     18.78379938	    -34.72322730	     -4.91509499	     23.42655556	     -1.87907843	      4.29790016	    -36.14930152	     19.20268618	    -33.57167955	      8.09318007	      5.83414860
      1.37500000	     23.67845940	     -9.81252319	      0.17112257	     -0.27916101	      0.90909674	     -0.04824784	     -5.09944198	      9.84798413	      8.26447960	    -18.43226619	      8.88320226	    -21.25950252	     19.18257970	    -35.00070442	     -4.72857889	     22.57425723	     -1.86915523	      4.97467434	    -35.19771478	     19.13392665	    -33.40353168	      7.93522509	      6.22506449
      1.38000000	     23.47329102	     -9.88231118	     -0.22576169	     -0.27354000	      0.90801104	     -0.04727148	     -5.07978420	      9.94002223	      9.59254388	    -16.41256377	      8.01185169	    -22.15994193	     19.80039248	    -35.24068466	     -4.57058779	     21.62894777	     -1.92944704	      5.76092635	    -34.16202020	     18.98675660	    -33.20895756	      7.82952860	      6.56170504
      1.38500000	     23.26572536	     -9.88633589	     -0.65977480	     -0.26794291	      0.90687526	     -0.04625390	     -5.06716105	      9.92983502	     10.93769934	    -14.39532817	      6.97911402	    -23.07930343	     23.08414110	    -35.47186390	     -4.33038320	     20.68783032	     -2.00696285	      6.71170425	    -32.72372009	     17.55544922	    -33.01079086	      7.64403842	      6.90903090
      1.39000000	     23.05783870	     -9.85688075	     -1.06827527	     -0.26238446	      0.90568366	     -0.04527398	     -5.10281617	      9.87524177	     12.40114342	    -12.32421251	      6.01746725	    -24.06457311	     23.02229919	    -35.73699911	     -4.07750698	     19.99619765	     -1.95746229	      7.10842218	    -32.21388411	     17.50286515	    -32.80938078	      7.44107076	      7.22001441
      1.39500000	     22.81741728	     -9.80995945	     -1.48609617	     -0.25673679	      0.90441007	     -0.04428533	     -5.11425083	      9.77119630	     13.81272902	    -10.27982354	      5.03749789	    -24.89714668	     23.27245573	    -35.92952019	     -3.79288147	     19.16616740	     -2.00964578	      7.73667031	    -31.32808993	     17.49779312	    -32.55711316	      7.22612925	      7.52377403
      1.40000000	     22.58200431	     -9.72808754	     -1.89793817	     -0.25108551	      0.90307981	     -0.04331945	     -5.13990840	      9.60410220	     15.21395595	     -8.25713026	      3.99894549	    -25.73067370	     23.74266852	    -36.12764834	     -3.47658279	     18.38384943	     -2.04609557	      8.33100809	    -30.45580996	     17.44554538	    -32.30626501	      6.98451572	      7.79650274
      1.40500000	     22.35388320	     -9.61869897	     -2.28607687	     -0.24540509	      0.90171267	     -0.04240378	     -5.18018459	      9.38233759	     16.53964966	     -6.25880498	      2.88678365	    -26.58667783	     24.55544737	    -36.29574488	     -3.13170382	     17.58054796	     -2.15461933	      8.94200422	    -29.63096178	     17.29933432	    -32.05150243	      6.73276908	      8.02072724
      1.41000000	     22.10009446	     -9.47017464	     -2.67719532	     -0.23971081	      0.90027150	     -0.04150191	     -5.18446679	      9.09666837	     17.82942817	     -4.30081838	      1.54365954	    -27.70746429	     28.24001092	    -36.46820890	     -2.76004438	     16.94877494	     -2.17591513	      9.46619963	    -28.92319734	     16.11132488	    -31.76008540	      6.45017859	      8.25806125
      1.41500000	     21.81890194	     -9.30008704	     -3.07978316	     -0.23400693	      0.89877399	     -0.04056585	     -5.08882399	      8.79495691	     18.96088347	     -2.58925269	      0.74887091	    -28.00183056	     28.24442481	    -36.57456740	     -2.35990408	     16.25189608	     -2.26762797	      9.98562737	    -28.15593047	     16.18302268	    -31.43358771	      6.14531880	      8.48534030
      1.42000000	     21.56324764	     -9.11855114	     -3.45097220	     -0.22829431	      0.89728514	     -0.03968350	     -5.01398003	      8.47498648	     20.01030530	     -0.94611560	     -0.10963202	    -28.36443890	     28.45036438	    -36.69689866	     -1.96008241	     15.58497993	     -2.36655673	     10.46294372	    -27.45652218	     16.20846813	    -31.12757082	      5.84701652	      8.66957200
      1.42500000	     21.31401448	     -8.93039948	     -3.80104850	     -0.22257289	      0.89578914	     -0.03882380	     -4.91702760	      8.15499051	     20.92725003	      0.56649295	     -0.88589666	    -28.60338376	     28.85322682	    -36.81248888	     -1.56394316	     14.94875257	     -2.48405640	     10.91755194	    -26.77635509	     16.20433835	    -30.82250889	      5.55423521	      8.84950428
